<?xml version="1.0" encoding="UTF-8" standalone="no" ?>
<!DOCTYPE svg PUBLIC "-//W3C//DTD SVG 1.1//EN" "http://www.w3.org/Graphics/SVG/1.1/DTD/svg11.dtd">
<svg xmlns="http://www.w3.org/2000/svg" xmlns:xlink="http://www.w3.org/1999/xlink" version="1.1" width="442.60392456054683" height="137.99" xml:space="preserve">
<desc>Created with Fabric.js 1.6.0-rc.1</desc>
<defs></defs>
  <g transform="translate(291.05 73.11) scale(1.2 1.2)">
   <text font-family="PROMESH" font-size="40" font-weight="bold" style="stroke: none; stroke-width: 1; stroke-dasharray: none; stroke-linecap: butt; stroke-linejoin: miter; stroke-miterlimit: 10; fill: #cc312b; fill-rule: nonzero; opacity: 1;" ><tspan x="-118.46" y="8.98" style="stroke: none; stroke-width: 0; stroke-dasharray: none; stroke-linecap: butt; stroke-linejoin: miter; stroke-miterlimit: 4; fill: #cc312b; fill-rule: ; opacity: 1;">D</tspan><tspan x="-97.58" y="8.98" style="stroke: none; stroke-width: 0; stroke-dasharray: none; stroke-linecap: butt; stroke-linejoin: miter; stroke-miterlimit: 4; fill: #cc312b; fill-rule: ; opacity: 1;">a</tspan><tspan x="-72.46" y="8.98" style="stroke: none; stroke-width: 0; stroke-dasharray: none; stroke-linecap: butt; stroke-linejoin: miter; stroke-miterlimit: 4; fill: #cc312b; fill-rule: ; opacity: 1;">y</tspan><tspan x="-46.26" y="8.98" style="stroke: none; stroke-width: 0; stroke-dasharray: none; stroke-linecap: butt; stroke-linejoin: miter; stroke-miterlimit: 4; fill: #cc312b; fill-rule: ; opacity: 1;">t</tspan><tspan x="-22.94" y="8.98" style="stroke: none; stroke-width: 0; stroke-dasharray: none; stroke-linecap: butt; stroke-linejoin: miter; stroke-miterlimit: 4; fill: #cc312b; fill-rule: ; opacity: 1;">h</tspan><tspan x="2.98" y="8.98" style="stroke: none; stroke-width: 0; stroke-dasharray: none; stroke-linecap: butt; stroke-linejoin: miter; stroke-miterlimit: 4; fill: #cc312b; fill-rule: ; opacity: 1;">o</tspan><tspan x="22.86" y="8.98" style="stroke: none; stroke-width: 0; stroke-dasharray: none; stroke-linecap: butt; stroke-linejoin: miter; stroke-miterlimit: 4; fill: #cc312b; fill-rule: ; opacity: 1;">u</tspan><tspan x="49.38" y="8.98" style="stroke: none; stroke-width: 0; stroke-dasharray: none; stroke-linecap: butt; stroke-linejoin: miter; stroke-miterlimit: 4; fill: #cc312b; fill-rule: ; opacity: 1;">g</tspan><tspan x="69.22" y="8.98" style="stroke: none; stroke-width: 0; stroke-dasharray: none; stroke-linecap: butt; stroke-linejoin: miter; stroke-miterlimit: 4; fill: #cc312b; fill-rule: ; opacity: 1;">h</tspan><tspan x="95.14" y="8.98" style="stroke: none; stroke-width: 0; stroke-dasharray: none; stroke-linecap: butt; stroke-linejoin: miter; stroke-miterlimit: 4; fill: #cc312b; fill-rule: ; opacity: 1;">t</tspan></text>
 </g>
<g style="stroke: none; stroke-width: 1; stroke-dasharray: none; stroke-linecap: butt; stroke-linejoin: miter; stroke-miterlimit: 10; fill: none; fill-rule: nonzero; opacity: 1;" transform="translate(10 10) scale(0.23 0.23)" >
  <path d="M 256 0 c 141.384 0 256 114.616 256 256 c 0 141.387 -114.616 256 -256 256 S 0 397.387 0 256 C 0 114.616 114.616 0 256 0 z" style="stroke: none; stroke-width: 1; stroke-dasharray: none; stroke-linecap: butt; stroke-linejoin: miter; stroke-miterlimit: 10; fill: #DF5A48; fill-rule: nonzero; opacity: 1;" transform=" matrix(1 0 0 1 0 0) " stroke-linecap="round" />
  <path d="M 258 104.004 c 54.124 0 98 43.871 98 98 c 0 23.575 -7.664 45.529 -17.684 62.028 c -5.072 5.391 -10.056 15.327 -12.349 19.884 c -7.128 14.163 -18.968 82.095 -33.776 88.364 c -11.739 4.972 -20.643 7.721 -34.193 7.721 c -13.357 0 -22.083 -2.668 -33.688 -7.509 c -14.991 -6.248 -26.327 -74.588 -34.228 -88.512 c -2.9 -5.104 -6.78 -11.379 -12.392 -19.933 c -10.024 -16.528 -17.692 -38.517 -17.692 -62.049 C 160 147.876 203.876 104.004 258 104.004 z" style="stroke: none; stroke-width: 1; stroke-dasharray: none; stroke-linecap: butt; stroke-linejoin: miter; stroke-miterlimit: 10; fill: rgb(247,228,169); fill-rule: nonzero; opacity: 1;" transform=" matrix(1 0 0 1 0 0) " stroke-linecap="round" />
  <path d="M 309.011 205.983 c -5.101 -5.412 -10.145 -4.98 -12.693 -4.241 c -8.205 2.389 -12.059 13.344 -12.763 16.996 c -0.744 3.827 -1.476 8.616 -2.201 14.056 c -1.824 0.156 -3.781 0.212 -5.864 0.153 c -3.012 -0.084 -5.6 -0.6 -7.824 -1.4 c 1.029 -1.373 1.956 -2.84 2.787 -4.408 c 4.647 -8.788 4.945 -18.676 0.752 -25.208 c -2.84 -4.432 -7.565 -6.824 -12.943 -6.628 c -5.44 -0.196 -10.108 2.196 -12.948 6.628 c -4.192 6.525 -3.892 16.42 0.752 25.208 c 0.828 1.564 1.76 3.037 2.787 4.408 c -2.225 0.801 -4.808 1.32 -7.82 1.4 c -2.083 0.064 -4.04 0.003 -5.867 -0.153 c -0.723 -5.44 -1.456 -10.228 -2.201 -14.056 c -0.707 -3.652 -4.56 -14.612 -12.768 -16.996 c -2.553 -0.744 -7.584 -1.172 -12.688 4.241 c -5.448 5.776 -6.748 13.596 -3.464 20.916 c 2.803 6.264 9.495 12.728 20.629 15.824 c 3.932 33.596 7.528 84.667 8.404 97.607 h 11.616 c -0.72 -10.868 -4.136 -60.74 -8.095 -95.793 c 1.529 0.068 3.107 0.08 4.752 0.035 c 6.272 -0.169 12.013 -1.779 16.907 -4.641 c 4.896 2.852 10.64 4.464 16.907 4.641 c 1.632 0.043 3.22 0.032 4.752 -0.035 c -3.959 34.964 -7.377 84.744 -8.108 95.793 h 11.648 c 0.78 -11.688 4.396 -63.417 8.393 -97.607 c 11.132 -3.096 17.824 -9.56 20.629 -15.824 C 315.756 219.584 314.464 211.759 309.011 205.983 z M 214.667 222.148 c -1.333 -2.967 -0.868 -5.872 1.308 -8.176 l 1.075 -1.008 c 1.403 0.669 3.948 5.163 4.496 7.988 c 0.484 2.512 0.968 5.472 1.456 8.799 C 218.572 227.647 215.857 224.804 214.667 222.148 z M 260.163 221.7 c -0.468 0.887 -1.091 1.916 -1.908 2.975 c -0.809 -1.059 -1.435 -2.083 -1.908 -2.975 c -2.905 -5.493 -2.808 -11.048 -1.247 -13.488 c 0.492 -0.772 1.116 -1.288 2.464 -1.288 l 0.336 0.008 l 0.379 0.016 l 0.328 -0.016 c 1.58 -0.08 2.263 0.449 2.795 1.28 C 262.976 210.652 263.071 216.207 260.163 221.7 z M 301.86 222.143 c -1.193 2.66 -3.913 5.504 -8.336 7.611 c 0.484 -3.324 0.968 -6.296 1.452 -8.807 c 0.559 -2.897 3.225 -7.549 4.265 -8.02 c 0.003 0 0.46 0.148 1.304 1.04 C 302.723 216.271 303.187 219.176 301.86 222.143 z" style="stroke: none; stroke-width: 1; stroke-dasharray: none; stroke-linecap: butt; stroke-linejoin: miter; stroke-miterlimit: 10; fill: #495F6D; fill-rule: nonzero; opacity: 1;" transform=" matrix(1 0 0 1 0 0) " stroke-linecap="round" />
  <path d="M 312 369.999 c 0 -5.523 -4.477 -10 -10 -10 c 5.523 0 10 -4.475 10 -10 c 0 -5.523 -4.477 -10 -10 -10 h -88 c -5.523 0 -10 4.475 -10 10 c 0 5.523 4.475 10 10 10 c -5.523 0 -10 4.477 -10 10 s 4.475 10 10 10 c -5.523 0 -10 4.477 -10 10 c 0 5.523 4.475 10 10 10 h 6.001 c 0 6.632 17.375 20 24 20 h 28.001 c 6.628 0 24 -13.368 24 -20 h 6.001 c 5.523 0 10 -4.477 10 -10 s -4.477 -10 -10 -10 C 307.524 379.999 312 375.524 312 369.999 z" style="stroke: none; stroke-width: 1; stroke-dasharray: none; stroke-linecap: butt; stroke-linejoin: miter; stroke-miterlimit: 10; fill: #ECF0F0; fill-rule: nonzero; opacity: 1;" transform=" matrix(1 0 0 1 0 0) " stroke-linecap="round" />
  <path d="M 204 340 v 8 h 108 v -8 H 204 z M 204 367.999 h 108 v -8 H 204 L 204 367.999 L 204 367.999 z M 204 387.999 h 108 v -8 H 204 L 204 387.999 L 204 387.999 z M 204 419.999 h 108 v -20 H 204 L 204 419.999 L 204 419.999 z" style="stroke: none; stroke-width: 1; stroke-dasharray: none; stroke-linecap: butt; stroke-linejoin: miter; stroke-miterlimit: 10; fill: #D0D4D4; fill-rule: nonzero; opacity: 1;" transform=" matrix(1 0 0 1 0 0) " stroke-linecap="round" />
</g>
</svg>